<svg width="48" height="47" viewBox="0 0 48 47" fill="none" xmlns="http://www.w3.org/2000/svg">
<path d="M40.2318 0.0166016C40.1867 0.0182334 40.1418 0.02215 40.0969 0.028025L26.1042 1.49606V1.49574C25.7651 1.53229 25.4491 1.68047 25.208 1.91546L0.442218 26.0508C0.159013 26.3253 0 26.6983 0 27.0873C0 27.4764 0.159013 27.8494 0.442218 28.1239L19.1621 46.3754C19.4436 46.6515 19.8262 46.8065 20.2252 46.8065C20.6242 46.8065 21.0069 46.6515 21.2884 46.3754L46.0542 22.2409H46.0546C46.2983 22.003 46.4502 21.6903 46.4851 21.3557L47.9904 7.72478C48.042 7.28188 47.8836 6.84028 47.5599 6.52537L41.315 0.448174C41.0285 0.167158 40.6375 0.0114725 40.2314 0.0170204L40.2318 0.0166016ZM37.5809 6.03079C38.6755 6.03079 39.7705 6.43224 40.595 7.2358C42.2437 8.84321 42.238 11.497 40.5887 13.1044C38.94 14.7119 36.2241 14.7119 34.5751 13.1044C32.9261 11.497 32.9173 8.84321 34.566 7.2358C35.3905 6.43193 36.4855 6.03079 37.5802 6.03079H37.5809ZM26.8686 11.5368C27.274 11.53 27.665 11.6837 27.9525 11.9624L35.741 19.556C36.0249 19.8305 36.1846 20.2042 36.1846 20.5943C36.1846 20.984 36.0249 21.3577 35.741 21.6322L21.2744 35.7344V35.7347C20.9922 36.0079 20.6102 36.1609 20.2128 36.16C19.8151 36.159 19.4342 36.0039 19.1537 35.7288L11.3649 28.1352C11.0857 27.8614 10.9287 27.4906 10.9287 27.1041C10.9287 26.718 11.0857 26.3473 11.3649 26.0734L25.8324 11.9679C26.1072 11.6983 26.4791 11.5436 26.8691 11.5367L26.8686 11.5368ZM26.8954 15.0666L14.5515 27.1042L20.2193 32.6302L32.5624 20.5926L26.8954 15.0666Z" fill="#F59F0D"/>
</svg>
