<svg width="49" height="50" viewBox="0 0 49 50" fill="none" xmlns="http://www.w3.org/2000/svg">
<path d="M48.8113 22.5802C48.6267 22.329 48.3332 22.1795 48.021 22.1795H39.9049V20.2031C39.9049 19.6629 39.4664 19.2243 38.9262 19.2243H35.579V9.53035C35.579 8.98914 35.1412 8.55163 34.6003 8.55163H21.1149C20.5747 8.55163 20.1361 8.98945 20.1361 9.53035V19.2234H16.7903C16.2491 19.2234 15.8116 19.662 15.8116 20.2022V22.1797H10.8381L6.56979 9.22359C6.43761 8.82185 6.06294 8.55125 5.64036 8.55125H0.978724C0.437513 8.55125 0 8.98907 0 9.52997C0 10.0701 0.437824 10.5087 0.978724 10.5087H4.93163L15.2216 41.7444C15.3537 42.1451 15.7284 42.4167 16.151 42.4167H19.4291C18.5205 43.1768 17.9411 44.3182 17.9411 45.5932C17.9411 47.8771 19.7985 49.7348 22.0827 49.7348C24.3666 49.7348 26.2244 47.8774 26.2244 45.5932C26.2244 44.4865 25.7938 43.4461 25.0119 42.6644C24.9245 42.577 24.8332 42.4955 24.7389 42.4157H33.4863C32.5777 43.1772 31.9983 44.3186 31.9983 45.5931C31.9983 47.877 33.8557 49.7348 36.1399 49.7348C37.2456 49.7348 38.2871 49.3042 39.0687 48.5216C39.8507 47.7382 40.2812 46.6982 40.2812 45.5928C40.2812 44.3175 39.7018 43.175 38.7932 42.4153H42.207C42.6334 42.4153 43.0109 42.1402 43.1399 41.7336L44.9009 36.198C44.9009 36.1956 44.902 36.1935 44.902 36.1921L48.9541 23.4536C49.0484 23.1567 48.9957 22.8319 48.8111 22.5797L48.8113 22.5802ZM22.0935 10.5096H24.9463V14.5939C24.9463 14.9325 25.1215 15.2469 25.4094 15.4255C25.6974 15.6042 26.0579 15.6215 26.3607 15.4703L27.8626 14.7237L29.4154 15.4748C29.5503 15.5393 29.6964 15.5726 29.8417 15.5726C30.0228 15.5726 30.2032 15.522 30.3625 15.4228C30.648 15.243 30.8211 14.9298 30.8211 14.5936V10.5096H33.6211V19.2237H22.0932L22.0935 10.5096ZM17.7691 21.1814H24.947V25.2658C24.947 25.6044 25.1222 25.9197 25.4102 26.0984C25.6981 26.277 26.0586 26.293 26.3614 26.1421L27.8633 25.3955L29.4161 26.1466C29.551 26.2122 29.6971 26.2444 29.8425 26.2444C30.0236 26.2444 30.204 26.1938 30.3632 26.0946C30.6487 25.9159 30.8218 25.6026 30.8218 25.2654V21.1811H37.948V34.9249H17.7705L17.7702 21.1811L17.7691 21.1814ZM22.0821 47.7775C20.8786 47.7775 19.8981 46.7987 19.8981 45.5935C19.8981 44.39 20.8786 43.4096 22.0821 43.4096C22.6659 43.4096 23.2141 43.6365 23.6263 44.0487C24.0384 44.4608 24.2653 45.0107 24.2653 45.5929C24.266 46.7988 23.2873 47.7775 22.0821 47.7775L22.0821 47.7775ZM37.6839 47.1384C37.2707 47.5506 36.7219 47.7775 36.1397 47.7775C34.9352 47.7775 33.9558 46.797 33.9558 45.5935C33.9558 44.3891 34.9345 43.4096 36.1397 43.4096C37.3432 43.4096 38.3236 44.3883 38.3236 45.5935C38.3229 46.1764 38.0964 46.7248 37.6839 47.1385L37.6839 47.1384ZM26.8789 5.12524V0.978724C26.8789 0.438214 27.317 0 27.8576 0C28.3981 0 28.8363 0.43817 28.8363 0.978724V5.12524C28.8363 5.66575 28.3982 6.10397 27.8576 6.10397C27.3171 6.10466 26.8789 5.66614 26.8789 5.12524ZM31.1967 5.81771C30.8144 5.4354 30.8144 4.81545 31.1967 4.43311L34.1286 1.5012C34.5109 1.11889 35.1309 1.11889 35.5132 1.5012C35.8955 1.88352 35.8955 2.50346 35.5132 2.88581L32.5813 5.81771C32.3902 6.00887 32.1397 6.10462 31.8888 6.10462C31.6384 6.10462 31.3879 6.00853 31.1967 5.81771H31.1967ZM20.2025 2.88581C19.8202 2.50349 19.8202 1.88355 20.2025 1.5012C20.5848 1.11889 21.2048 1.11889 21.5871 1.5012L24.519 4.43311C24.9013 4.81543 24.9013 5.43537 24.519 5.81771C24.3279 6.00887 24.0774 6.10462 23.8265 6.10462C23.5757 6.10462 23.3256 6.00922 23.1341 5.81771L20.2025 2.88581Z" fill="#F59F0D"/>
</svg>
