<svg width="45" height="50" viewBox="0 0 45 50" fill="none" xmlns="http://www.w3.org/2000/svg">
<path d="M14.7907 15.0288H11.2656V21.75L12.6782 20.8973C12.7102 20.8776 12.7459 20.8741 12.7792 20.8608C12.8202 20.844 12.8588 20.8243 12.9016 20.8168C12.9444 20.8093 12.9866 20.8116 13.0294 20.8116C13.0721 20.8116 13.1143 20.8075 13.1571 20.8168C13.2011 20.8261 13.2409 20.8452 13.2825 20.862C13.3146 20.8747 13.3491 20.8788 13.38 20.8967L14.7925 21.7494L14.7919 15.0288L14.7907 15.0288Z" fill="#F59F0D"/>
<path d="M15.5228 43.2254C15.5228 44.5693 14.4057 45.6582 13.027 45.6582C11.649 45.6582 10.5312 44.5692 10.5312 43.2254C10.5312 41.882 11.649 40.7925 13.027 40.7925C14.4057 40.7925 15.5228 41.8821 15.5228 43.2254Z" fill="#F59F0D"/>
<path d="M13.0258 37.062C9.53938 37.062 6.70312 39.8269 6.70312 43.2253C6.70312 46.6237 9.53953 49.3886 13.0258 49.3886C16.5121 49.3886 19.3485 46.6237 19.3485 43.2253C19.3485 39.8274 16.5121 37.062 13.0258 37.062ZM13.0258 46.9559C10.9163 46.9559 9.19892 45.2818 9.19892 43.2255C9.19892 41.1691 10.9163 39.495 13.0258 39.495C15.1354 39.495 16.8527 41.1691 16.8527 43.2255C16.8527 45.2824 15.136 46.9559 13.0258 46.9559Z" fill="#F59F0D"/>
<path d="M36.9682 43.2254C36.9682 44.5693 35.8504 45.6582 34.4724 45.6582C33.0937 45.6582 31.9766 44.5692 31.9766 43.2254C31.9766 41.882 33.0938 40.7925 34.4724 40.7925C35.8504 40.7925 36.9682 41.8821 36.9682 43.2254Z" fill="#F59F0D"/>
<path d="M34.479 37.062C30.9925 37.062 28.1562 39.8269 28.1562 43.2253C28.1562 46.6237 30.9927 49.3886 34.479 49.3886C37.9652 49.3886 40.8017 46.6237 40.8017 43.2253C40.8017 39.8274 37.9648 37.062 34.479 37.062ZM34.479 46.9559C32.3694 46.9559 30.652 45.2818 30.652 43.2255C30.652 41.1691 32.3694 39.495 34.479 39.495C36.5885 39.495 38.3059 41.1691 38.3059 43.2255C38.3059 45.2824 36.5885 46.9559 34.479 46.9559Z" fill="#F59F0D"/>
<path d="M43.6958 37.7087C42.5988 37.488 41.2665 36.9835 40.5741 35.8933C40.2705 35.416 40.0976 34.7059 40.006 33.8822C38.6179 32.3524 35.532 29.0268 27.7188 28.4829V39.73C29.0071 37.3735 31.551 35.7661 34.4753 35.7661C37.2416 35.7661 39.6495 37.2154 40.9937 39.3646C41.2159 39.7202 41.4239 40.0846 41.5831 40.475H43.6089V43.0105L42.1179 42.9926C42.1203 43.0719 42.1298 43.1484 42.1298 43.2272C42.1298 43.588 42.0941 43.9408 42.043 44.2884L44.2673 44.3156H44.275C44.4509 44.3156 44.6185 44.2484 44.7433 44.1273C44.8698 44.0051 44.9406 43.8394 44.9406 43.6668V37.8631C44.6244 37.8527 44.1865 37.8075 43.6956 37.709L43.6958 37.7087ZM32.5864 31.8373H30.1732C29.806 31.8373 29.5077 31.5465 29.5077 31.1885C29.5077 30.8305 29.806 30.5397 30.1732 30.5397H32.5864C32.9537 30.5397 33.252 30.8305 33.252 31.1885C33.252 31.5465 32.9537 31.8373 32.5864 31.8373Z" fill="#F59F0D"/>
<path d="M25.3842 9.28564H20.5548C24.3817 6.04294 23.5646 2.96766 23.1743 2.02334C22.832 1.19962 22.1997 0.619192 21.344 0.346899C19.9945 -0.0823323 18.3769 0.3301 17.4411 0.894303C15.3137 2.17737 13.8352 3.89662 13.0406 5.95877C12.2568 3.85258 10.7682 2.09739 8.60689 0.793464C7.66976 0.226367 6.04979 -0.183749 4.7027 0.24606C3.84817 0.518309 3.2159 1.09874 2.87368 1.9225C2.07383 3.85089 2.43691 6.67303 5.48129 9.28608L0.665556 9.2855C0.298306 9.2855 0 9.57629 0 9.93428V13.7308H26.0502V9.93428C26.0502 9.57571 25.7531 9.2855 25.3847 9.2855L25.3842 9.28564ZM18.1427 1.99843C18.8373 1.57788 20.0674 1.30562 20.9315 1.58078C21.4146 1.73544 21.745 2.03897 21.9405 2.50991C22.281 3.33014 23.0042 6.2184 18.372 9.2873H16.8948L18.2193 7.38782C18.4243 7.09182 18.3471 6.68866 18.0422 6.48707C17.7427 6.28839 17.3262 6.36137 17.117 6.6597L15.2855 9.28847H13.7203C13.8552 6.1518 15.3301 3.69564 18.1426 1.99844L18.1427 1.99843ZM4.11017 2.40854C4.30448 1.9376 4.63607 1.63406 5.11801 1.4794C5.97908 1.2054 7.21036 1.47709 7.90924 1.89879C10.751 3.61393 12.2289 6.10316 12.3375 9.2855H10.7669L8.93548 6.65673C8.72512 6.35957 8.31093 6.28542 8.01025 6.48411C7.7054 6.68512 7.62815 7.08886 7.83316 7.38486L9.15773 9.28433H7.66142C3.96641 6.8341 3.3941 4.13415 4.11017 2.40848V2.40854Z" fill="#F59F0D"/>
<path d="M23.6539 17.9991V15.0293H16.1171V22.9161C16.1171 23.1524 15.9852 23.369 15.7748 23.4831C15.675 23.5376 15.5632 23.5648 15.4515 23.5648C15.3291 23.5648 15.2079 23.5324 15.1003 23.4675L13.0223 22.2128L10.9442 23.4675C10.8366 23.5324 10.7154 23.5648 10.593 23.5648C10.4813 23.5648 10.3696 23.5376 10.2697 23.4831C10.0594 23.369 9.92745 23.1524 9.92745 22.9161V15.0293H2.39062V43.7861C2.39062 44.144 2.68893 44.4348 3.05618 44.4348H5.47774C5.41118 44.0403 5.3684 43.6395 5.3684 43.2271C5.3684 43.1969 5.37256 43.1674 5.37374 43.1373H3.72286V40.475H5.91501C7.0411 37.72 9.79897 35.7661 13.0235 35.7661C15.7973 35.7661 18.2107 37.2247 19.5524 39.3848C19.7693 39.7341 19.9743 40.092 20.1312 40.4749H26.3834V39.8262L26.3839 19.2966V17.9991L23.6539 17.9991Z" fill="#F59F0D"/>
<path d="M26.898 44.2525C26.8498 43.9165 26.8166 43.5753 26.8166 43.226C26.8166 43.135 26.8273 43.0458 26.8314 42.9561L20.6656 43.0117C20.6679 43.0841 20.6763 43.1542 20.6763 43.2272C20.6763 43.5956 20.6388 43.9564 20.5859 44.3104L26.898 44.2525Z" fill="#F59F0D"/>
<path d="M41.7602 27.0404C41.7109 27.3399 41.6646 27.6527 41.6194 27.9707L41.6182 27.9695C41.2242 30.7656 41.0258 34.1422 41.7032 35.2097C42.2226 36.0282 43.4776 36.392 44.3922 36.5148V36.5108C44.5919 36.538 44.7808 36.5577 44.9365 36.5629V32.7288C44.9365 32.6355 44.9151 32.5417 44.8753 32.4577C44.7636 32.219 43.6149 29.8174 41.7602 27.0381V27.0404L41.7602 27.0404Z" fill="#F59F0D"/>
<path d="M40.6918 25.5074C37.9695 21.8001 34.1575 17.9995 29.9657 17.9995H27.7188V27.1838C34.5342 27.6391 38.1055 30.1775 39.9304 31.9106C39.9798 29.5224 40.4201 26.8531 40.6917 25.5074H40.6918Z" fill="#F59F0D"/>
</svg>
