<svg width="16" height="12" viewBox="0 0 16 12" fill="none" xmlns="http://www.w3.org/2000/svg">
<path d="M5 0H2.75C2.02065 0 1.32118 0.289731 0.805456 0.805456C0.289731 1.32118 0 2.02065 0 2.75V5H2.268C2.0479 4.61872 1.95976 4.17548 2.01724 3.739C2.07472 3.30252 2.27461 2.89721 2.58591 2.58591C2.89721 2.27461 3.30252 2.07472 3.739 2.01724C4.17548 1.95976 4.61872 2.0479 5 2.268V0ZM6 4V5H7C7.19778 5 7.39112 4.94135 7.55557 4.83147C7.72002 4.72159 7.84819 4.56541 7.92388 4.38268C7.99957 4.19996 8.01937 3.99889 7.98079 3.80491C7.9422 3.61093 7.84696 3.43275 7.70711 3.29289C7.56725 3.15304 7.38907 3.0578 7.19509 3.01921C7.00111 2.98063 6.80004 3.00043 6.61732 3.07612C6.43459 3.15181 6.27841 3.27998 6.16853 3.44443C6.05865 3.60888 6 3.80222 6 4ZM8.732 5C8.9521 4.61872 9.04024 4.17548 8.98276 3.739C8.92528 3.30252 8.72539 2.89721 8.41409 2.58591C8.10279 2.27461 7.69748 2.07472 7.261 2.01724C6.82452 1.95976 6.38128 2.0479 6 2.268V0H13.25C13.9793 0 14.6788 0.289731 15.1945 0.805456C15.7103 1.32118 16 2.02065 16 2.75V5H8.732ZM6.707 6L8.354 7.646C8.44789 7.73989 8.50063 7.86722 8.50063 8C8.50063 8.13278 8.44789 8.26011 8.354 8.354C8.26011 8.44789 8.13278 8.50063 8 8.50063C7.86722 8.50063 7.73989 8.44789 7.646 8.354L6 6.707V12H13.25C13.9793 12 14.6788 11.7103 15.1945 11.1945C15.7103 10.6788 16 9.97935 16 9.25V6H6.707ZM5 12V6.707L3.354 8.354C3.26011 8.44789 3.13278 8.50063 3 8.50063C2.86722 8.50063 2.73989 8.44789 2.646 8.354C2.55211 8.26011 2.49937 8.13278 2.49937 8C2.49937 7.86722 2.55211 7.73989 2.646 7.646L4.293 6H0V9.25C0 9.97935 0.289731 10.6788 0.805456 11.1945C1.32118 11.7103 2.02065 12 2.75 12H5ZM5 4C5 3.80222 4.94135 3.60888 4.83147 3.44443C4.72159 3.27998 4.56541 3.15181 4.38268 3.07612C4.19996 3.00043 3.99889 2.98063 3.80491 3.01921C3.61093 3.0578 3.43275 3.15304 3.29289 3.29289C3.15304 3.43275 3.0578 3.61093 3.01921 3.80491C2.98063 3.99889 3.00043 4.19996 3.07612 4.38268C3.15181 4.56541 3.27998 4.72159 3.44443 4.83147C3.60888 4.94135 3.80222 5 4 5H5V4Z" fill="black"/>
</svg>
