<svg width="11" height="15" viewBox="0 0 11 15" fill="none" xmlns="http://www.w3.org/2000/svg">
<path d="M5.49999 15C4.50758 14.1024 3.58771 13.1183 2.74999 12.0581C1.49285 10.4659 6.90558e-07 8.09468 6.90558e-07 5.83512C-0.000544514 4.68115 0.321756 3.55294 0.926114 2.59327C1.53047 1.63361 2.38972 0.885634 3.39512 0.444003C4.40051 0.00237179 5.50686 -0.113061 6.57415 0.112313C7.64143 0.337687 8.62168 0.893737 9.39083 1.71009C9.90292 2.2507 10.3088 2.89364 10.585 3.6017C10.8612 4.30976 11.0023 5.06888 11 5.83512C11 8.09468 9.50712 10.4659 8.24998 12.0581C7.41226 13.1183 6.49239 14.1024 5.49999 15ZM5.49999 3.33561C4.87484 3.33561 4.27529 3.59895 3.83324 4.0677C3.39119 4.53645 3.14285 5.17221 3.14285 5.83512C3.14285 6.49803 3.39119 7.13379 3.83324 7.60254C4.27529 8.07129 4.87484 8.33463 5.49999 8.33463C6.12514 8.33463 6.72469 8.07129 7.16673 7.60254C7.60878 7.13379 7.85712 6.49803 7.85712 5.83512C7.85712 5.17221 7.60878 4.53645 7.16673 4.0677C6.72469 3.59895 6.12514 3.33561 5.49999 3.33561Z" fill="black"/>
</svg>
