<svg xmlns="http://www.w3.org/2000/svg" width="124" height="124" viewBox="0 0 124 124">
  <g id="men_profile" data-name="men profile" transform="translate(-1012.873 -125.411)">
    <rect id="Rectangle_6813" data-name="Rectangle 6813" width="112.602" height="115.974" rx="56.301" transform="matrix(1, -0.017, 0.017, 1, 1017.601, 132.965)" fill="#e8e8e8"/>
    <g id="man-shape" transform="translate(1039.204 148.776)">
      <g id="Layer_2_5_">
        <path id="Path_58860" data-name="Path 58860" d="M79.28,61.263c-9.959-4.092-13.141-7.546-13.141-14.938a5.91,5.91,0,0,1,.279-1.944c.782-2.284,3.007-2.537,4.1-9.171.555-3.372,3.24-.055,3.754-7.75,0-3.066-1.466-3.83-1.466-3.83s.745-4.54,1.037-8.032C74.2,11.245,71.608,0,57.786,0c-.06,0-.116,0-.174,0s-.115,0-.175,0C43.614,0,41.022,11.245,41.384,15.6c.292,3.493,1.037,8.032,1.037,8.032s-1.466.763-1.466,3.83c.514,7.7,3.2,4.378,3.754,7.75,1.09,6.634,3.315,6.887,4.1,9.171a5.918,5.918,0,0,1,.278,1.944c0,7.392-3.183,10.846-13.141,14.938-9.99,4.105-14.482,8.291-14.482,11.146v18.7h72.3v-18.7C93.762,69.554,89.27,65.368,79.28,61.263Z" transform="translate(-21.46)" fill="#fff"/>
      </g>
    </g>
    <g id="Layer_1-2" transform="translate(1012.873 125.411)">
      <path id="Path_58645" data-name="Path 58645" d="M96.171,221.771A62.481,62.481,0,0,1,33.7,159.3h9.315c0,27.448,25.708,53.946,53.156,53.946Z" transform="translate(-33.7 -97.771)" fill="#63c3d1" fill-rule="evenodd"/>
      <path id="Path_58646" data-name="Path 58646" d="M187.1,14.5V6a62.447,62.447,0,0,1,62.471,62.43h-8.922C240.608,41.023,214.548,14.5,187.1,14.5Z" transform="translate(-125.571 -6)" fill="#afca0b" fill-rule="evenodd"/>
      <path id="Path_58647" data-name="Path 58647" d="M96.171,14.594V6A62.482,62.482,0,0,0,33.7,68.471h9.545C40.155,39.147,68.723,14.594,96.171,14.594Z" transform="translate(-33.7 -6)" fill="#f59e00" fill-rule="evenodd"/>
      <path id="Path_58668" data-name="Path 58668" d="M187.1,208.983v12.787A62.481,62.481,0,0,0,249.571,159.3h-8.495c-.041,27.448-26.528,55.163-53.976,55.163Z" transform="translate(-125.571 -97.771)" fill="#006c60" fill-rule="evenodd"/>
    </g>
  </g>
</svg>
