<svg width="45" height="39" viewBox="0 0 45 39" fill="none" xmlns="http://www.w3.org/2000/svg">
<path d="M24.8936 38.1972L44.405 38.7057L44.8897 20.1089C44.9703 17.0169 44.5368 14.4369 43.5888 12.3634C42.6402 10.293 41.3858 8.56126 39.8238 7.16547C38.2624 5.77223 36.5134 4.63814 34.5733 3.76564C32.6355 2.8932 30.7166 2.11074 28.817 1.41765L25.7912 7.13805C27.2278 7.78797 28.4521 8.43934 29.4662 9.09476C30.4814 9.75084 31.3054 10.4565 31.9386 11.2144C32.574 11.9735 33.0295 12.8321 33.3107 13.7864C33.5913 14.7457 33.7137 15.8685 33.6802 17.1555L25.4476 16.9409L24.8936 38.1972ZM0.765625 37.5684L20.2335 38.0757L20.7182 19.479C20.7988 16.3869 20.3653 13.807 19.4173 11.7334C18.4687 9.66309 17.2217 7.9315 15.6735 6.53606C14.1264 5.1432 12.3837 4.00927 10.4453 3.13682C8.50752 2.26438 6.58855 1.48192 4.689 0.788825L1.61919 6.50807C3.05577 7.158 4.28 7.80937 5.29412 8.46479C6.30936 9.12087 7.13332 9.82655 7.76708 10.5844C8.40195 11.3435 8.8574 12.2021 9.13868 13.1564C9.41926 14.1158 9.54164 15.2386 9.5081 16.5255L1.32018 16.3121L0.766201 37.5684L0.765625 37.5684Z" fill="#DB7539"/>
</svg>
