<svg width="36" height="30" viewBox="0 0 36 30" fill="none" xmlns="http://www.w3.org/2000/svg">
<path d="M16.3968 0H0.563499V15.0911C0.563499 17.6003 0.969551 19.6833 1.78212 21.3448C2.59516 23.0037 3.64905 24.3816 4.94518 25.4805C6.24084 26.5773 7.68315 27.46 9.27488 28.1266C10.8648 28.7931 12.4375 29.3871 13.9925 29.909L16.3254 25.2061C15.1467 24.7094 14.1401 24.2071 13.3039 23.697C12.4667 23.1864 11.7836 22.6316 11.2541 22.0304C10.7228 21.4282 10.3353 20.7416 10.087 19.9736C9.83918 19.2016 9.7162 18.2936 9.7162 17.2493H16.3968V0ZM35.9766 0H20.1785V15.0911C20.1785 17.6003 20.5845 19.6833 21.3971 21.3448C22.2101 23.0037 23.258 24.3816 24.543 25.4805C25.8271 26.5773 27.2643 27.46 28.8546 28.1266C30.4445 28.7931 32.0172 29.3871 33.5723 29.909L35.9408 25.2061C34.7621 24.7094 33.7556 24.2071 32.9193 23.697C32.0821 23.1864 31.399 22.6316 30.8691 22.0304C30.3382 21.4282 29.9507 20.7416 29.7024 19.9736C29.4546 19.2016 29.3317 18.2936 29.3317 17.2493H35.9761V0H35.9766Z" fill="#DB7539"/>
</svg>
