<svg width="44" height="43" viewBox="0 0 44 43" fill="none" xmlns="http://www.w3.org/2000/svg">
<path d="M42.2532 5.09589L21.8529 11.6588L1.46094 5.09589L21.8529 0L42.2532 5.09589Z" fill="#F59F0D"/>
<path d="M20.392 36.868V42.9811L0 36.4271V7.28418L19.608 13.5863C17.8953 14.2832 16.0968 14.7462 14.2604 14.9637C13.6423 15.0485 13.0755 15.3539 12.6652 15.8242C12.2548 16.294 12.0281 16.8965 12.0277 17.5206V21.3107C11.9727 22.8164 12.0631 24.3239 12.2978 25.8122C12.4043 26.3741 12.5398 26.9299 12.703 27.4778C13.0305 28.5622 13.471 29.6092 14.0172 30.6019C15.4971 33.2586 17.7096 35.4338 20.3912 36.8678L20.392 36.868Z" fill="#F59F0D"/>
<path d="M43.7045 7.28467V36.4276L23.3125 42.9816V36.8777C25.6931 35.6076 27.7083 33.7476 29.1644 31.4759C30.9112 28.6557 31.7882 25.3832 31.6853 22.0678V17.5663C31.6845 16.9421 31.4578 16.3396 31.0474 15.8698C30.6371 15.3996 30.0708 15.0941 29.4526 15.0093C27.6166 14.7902 25.8181 14.3268 24.1046 13.6319L43.7045 7.28467Z" fill="#F59F0D"/>
<path d="M29.2014 16.7734C27.1745 16.5318 25.1907 16.0138 23.3045 15.234C22.9355 15.0721 22.5843 14.9101 22.2422 14.73L22.0891 14.6762L21.846 14.6758H21.567C21.2069 14.8647 20.8468 15.0359 20.4597 15.1979H20.4593C18.5767 15.9788 16.5956 16.4969 14.5716 16.7376C14.1962 16.7871 13.9156 17.1062 13.9144 17.4848V20.5909C13.8453 22.2066 13.9269 23.8252 14.1572 25.4255C14.2488 25.9239 14.3694 26.4171 14.5173 26.9018C14.8039 27.8624 15.1933 28.7892 15.6788 29.6658C16.8247 31.7304 18.4718 33.4736 20.4685 34.7344C20.8287 34.9623 21.2008 35.1757 21.5851 35.3734H22.2599C22.6381 35.1753 23.0163 34.9683 23.3765 34.7344C25.0822 33.6444 26.532 32.1979 27.626 30.4942C29.1799 27.9681 29.9563 25.0405 29.8586 22.0764V17.5749C29.8856 17.1762 29.5978 16.8249 29.2015 16.7735L29.2014 16.7734ZM19.829 26.8929L17.8753 24.9393H17.8757C17.7017 24.7584 17.7017 24.4722 17.8757 24.291L18.389 23.7777L18.3886 23.7781C18.5678 23.5992 18.8576 23.5992 19.0369 23.7781L20.9094 25.6506C20.958 25.6952 21.0324 25.6952 21.0806 25.6506L25.2851 21.4911C25.4659 21.3175 25.7521 21.3175 25.9334 21.4911L26.4466 22.0044H26.4462C26.6202 22.1853 26.6202 22.4714 26.4462 22.6527L23.304 25.8037L22.161 26.8929L21.3238 27.7301C21.1446 27.9086 20.8548 27.9086 20.6755 27.7301L20.3966 27.4512L19.829 26.8929Z" fill="#F59F0D"/>
</svg>
