<svg width="27" height="27" viewBox="0 0 27 27" fill="none" xmlns="http://www.w3.org/2000/svg">
<path d="M11.4185 22.8369C13.9519 22.8364 16.4123 21.9883 18.408 20.4276L24.6824 26.7021L26.7007 24.6839L20.4262 18.4094C21.9877 16.4136 22.8363 13.9526 22.8369 11.4185C22.8369 5.12261 17.7143 0 11.4185 0C5.12261 0 0 5.12261 0 11.4185C0 17.7143 5.12261 22.8369 11.4185 22.8369ZM11.4185 2.85462C16.1414 2.85462 19.9823 6.6955 19.9823 11.4185C19.9823 16.1414 16.1414 19.9823 11.4185 19.9823C6.6955 19.9823 2.85462 16.1414 2.85462 11.4185C2.85462 6.6955 6.6955 2.85462 11.4185 2.85462Z" fill="#F99F1C"/>
</svg>
