<svg id="Layer_1" data-name="Layer 1" xmlns="http://www.w3.org/2000/svg" viewBox="0 0 188.2 80"><defs><style>.cls-1{fill:#808285;}.cls-2{fill:#58595b;}.cls-3{fill:#56c5d0;}.cls-3,.cls-4,.cls-5,.cls-6{fill-rule:evenodd;}.cls-4{fill:#a6ce39;}.cls-5{fill:#f99f1c;}.cls-6{fill:#007064;}.cls-7{isolation:isolate;}</style></defs><path class="cls-1" d="M132.5,71.8a3.3,3.3,0,0,0,.9,2.7,3,3,0,0,0,4.2.4l.3-.4a4.5,4.5,0,0,0,0-5.4,2.4,2.4,0,0,0-2.2-.9,2.8,2.8,0,0,0-2.3,1.1,3.8,3.8,0,0,0-.9,2.5m-1.1.2a4.3,4.3,0,0,1,1.3-3.4,3.4,3.4,0,0,1,3-1.3,3.3,3.3,0,0,1,2.9,1.3,3.5,3.5,0,0,1,1.1,3.2,4.7,4.7,0,0,1-1.1,3.4,3,3,0,0,1-2.9,1.1,3.5,3.5,0,0,1-3.2-1.1,5.2,5.2,0,0,1-1.1-3.2Zm-1.6,4.3h-1.1v-4h-4.6v4h-.9V67.5h.9v3.8h4.6V67.5h1.1Zm-9.1,0h-1.1l-4.7-7.2c0-.2,0-.2-.3-.5h0v7.7h-.9V67.5h1.4l4.5,7v.7h0V67.5h.9Zm-9.2,0h-1.2V67.5h1.2ZM109,68.4h-2.5v7.9h-1.2V68.4h-2.4v-.9H109Zm-7.5,4.3c0,2.5-1.1,3.6-3.2,3.6A2.9,2.9,0,0,1,94.9,74h0V67.5h1.2v5.2c0,2,.6,2.9,2.2,2.9s2.3-.9,2.3-2.7V67.5h.9Zm-15.4-.9a3.3,3.3,0,0,0,.9,2.7,2.4,2.4,0,0,0,2.3,1.1,2.7,2.7,0,0,0,2.2-1.1,4.5,4.5,0,0,0,0-5.4,2.4,2.4,0,0,0-2.2-.9A2.8,2.8,0,0,0,87,69.3,3.8,3.8,0,0,0,86.1,71.8ZM85,72a4.7,4.7,0,0,1,1.1-3.4,3.9,3.9,0,0,1,3.2-1.3,3.3,3.3,0,0,1,2.9,1.3,3.5,3.5,0,0,1,1.1,3.2,4.7,4.7,0,0,1-1.1,3.4,3.2,3.2,0,0,1-2.9,1.1,3.5,3.5,0,0,1-3.2-1.1A5.2,5.2,0,0,1,85,72Zm-.9,3.9a4.3,4.3,0,0,1-2.5.4,3.1,3.1,0,0,1-3-1.1A3.9,3.9,0,0,1,77.3,72a4.3,4.3,0,0,1,1.3-3.4,3.9,3.9,0,0,1,3.2-1.3l2.3.4v.9l-2.3-.4a3.5,3.5,0,0,0-3.4,3.3V72a3.8,3.8,0,0,0,.9,2.5,2.6,2.6,0,0,0,2.3,1.1,4.4,4.4,0,0,0,2.5-.6Zm-10.7.4h-5V67.5h4.8v1.1H69.8v2.5H73v1.4H69.8v2.7h3.6Zm-6.1,0H65.5l-2.9-4h-.5v4.3H60.8V67.5h1.3v4.1h0l.5-.5,2.9-3.6h1.6l-3.4,4.1Zm-8.6-3.6c0,2.5-1.1,3.6-3.4,3.6s-3.4-1.1-3.4-3.6V67.5h1.4v5.2c0,1.6.7,2.5,2,2.5s2.1-.7,2.1-2.5V67.5h1.3Zm-7.9,3.6H46V67.5h1.4v7.7h3.4v1.1Z"/><path class="cls-1" d="M142.9,68h-1.8a1.5,1.5,0,0,0-.4,1.1l.4.9h1.8a1.4,1.4,0,0,0,.2-1.8h-.2m-.9-.7a.9.9,0,0,1,1.1.7h0a1.5,1.5,0,0,1,.1,2.1h-.1l-1.1.5-1.1-.5c-.2-.4-.5-.7-.5-1.1a1.6,1.6,0,0,1,.5-1.1,1,1,0,0,1,1.1-.8Z"/><path class="cls-1" d="M141.6,68.9h.9a.3.3,0,0,0-.3-.3h-.6Zm-.3,1.1V68.2h1.4v.4h-.5v-.4h-.6v.9Z"/><path class="cls-2" d="M9.9,34.2V22.9L1.7,7.6H5.5l3.6,7.3c1,1.9,1.8,3.7,2.6,5.5h.1a55.2,55.2,0,0,1,2.6-5.5l3.7-7.3h3.7L13.2,22.8V34.2Z"/><path class="cls-2" d="M62.3,7.6V23.4c.2,5.7,2.2,8.5,6.1,8.5s6.1-2.8,6.2-8.5V7.6H78V23.1c0,4.1-.9,7-2.7,8.8a9.9,9.9,0,0,1-7.1,2.7A8.5,8.5,0,0,1,61.7,32Q59,29.5,59,23.3V7.6Z"/><path class="cls-1" d="M111.2,33.4q-2,1.2-6.9,1.2a12.7,12.7,0,0,1-9.1-3.5c-2.4-2.2-3.7-5.6-3.7-10s1.3-7.6,3.8-10.1a12.4,12.4,0,0,1,9.8-3.9,17.2,17.2,0,0,1,3.9.4,5.8,5.8,0,0,1,2.2.8l-.8,2.8a10.4,10.4,0,0,0-5.2-1.1c-6.5,0-9.9,3.7-10.1,11s3.4,10.6,9.9,10.7a11.5,11.5,0,0,0,5.5-1.1Z"/><path class="cls-1" d="M120.3,25.8l-2.7,8.4h-3.4l8.7-26.6h4l8.8,26.6h-3.5l-2.8-8.4Zm8.4-2.6-2.5-7.7c-.5-1.7-1-3.4-1.3-4.9h-.1l-.6,2.3a23.3,23.3,0,0,1-.7,2.5L121,23.2Z"/><path class="cls-1" d="M140.3,7.9a46,46,0,0,1,6.4-.5c3.5,0,6,.7,7.5,2.2a6.3,6.3,0,0,1,2,5,6,6,0,0,1-1.4,4.3,7.1,7.1,0,0,1-3.4,2.5h0c1.9.8,3.2,2.6,3.8,5.4a46.1,46.1,0,0,0,1.9,7.3h-3.4c-.5-.8-1-3-1.7-6.4a8.1,8.1,0,0,0-1.7-3.9,5,5,0,0,0-3.5-1.2h-3.2V34.2h-3.3Zm3.3,12.2H147c3.9-.1,5.8-1.8,5.9-5.1a4.7,4.7,0,0,0-1.6-3.8,6.8,6.8,0,0,0-4.4-1.2l-3.3.3Z"/><path class="cls-1" d="M174.9,21.7h-10v9.6h11.2v2.9H161.5V7.6h14v2.8H164.9v8.5h10Z"/><path class="cls-3" d="M38.3,34.2v3.4a17.2,17.2,0,0,1-16.9-17h3.4A13.4,13.4,0,0,0,38,34.2h.3Z"/><path class="cls-4" d="M38.3,7.1V3.4A17.2,17.2,0,0,1,55.5,20.6H52.2A13.4,13.4,0,0,0,38.9,7.1h-.6Z"/><path class="cls-5" d="M38.3,7.1V3.4A17.2,17.2,0,0,0,21.4,20.6h3.4A13.4,13.4,0,0,1,38.1,7.1h.2Z"/><path class="cls-6" d="M38.3,34.2v3.4A17,17,0,0,0,55.5,20.9v-.3H52.2A13.6,13.6,0,0,1,38.6,34.2h-.3Z"/><path class="cls-1" d="M176.6,5.3h3.9v.4h-1.6v4.8h-.7V5.7h-1.6Z"/><path class="cls-1" d="M181.4,5.3h.9l1.6,4.3,1.6-4.3h.9v5.2h-.7V5.7l-1.6,4.8h-.4l-1.6-4.8v4.8h-.7Z"/><g class="cls-7"><path class="cls-2" d="M54.3,59.3v.6c0,.2,0,.3-.1.4a.3.3,0,0,1-.1.2H47a.8.8,0,0,1-.6-.2,1,1,0,0,1-.3-.8V45c0-.1,0-.2.1-.2l.2-.2h2.4a.2.2,0,0,1,.2.2c.1.1.1.1.1.2V58H54c.1,0,.1.1.1.2s.1.2.1.4A1.3,1.3,0,0,1,54.3,59.3Z"/><path class="cls-2" d="M59.2,60.2c0,.1,0,.2-.1.2l-.2.2H56.5a.2.2,0,0,1-.2-.2V45c0-.1,0-.2.1-.2l.3-.2H59a.2.2,0,0,1,.2.2c.1.1.1.1.1.2V60.2Z"/><path class="cls-2" d="M70.9,45.9v.6c0,.2-.1.3-.1.4a.3.3,0,0,1-.1.2H65.6v4.3h4.8c.1,0,.1.1.1.2s.1.2.1.4v1.2c0,.2-.1.3-.1.4a.3.3,0,0,1-.1.2H65.6v6c0,.1,0,.2-.1.2s-.1.1-.2.2H62.9a.2.2,0,0,1-.2-.2c-.1-.1-.1-.1-.1-.2V45.6a1,1,0,0,1,.3-.8.7.7,0,0,1,.6-.2h7.3c.1,0,.1.1.1.2s.1.2.1.4S70.9,45.6,70.9,45.9Z"/><path class="cls-2" d="M82.3,59.4V60c0,.2,0,.3-.1.4a.3.3,0,0,1-.1.2H74.3a.8.8,0,0,1-.6-.2,1,1,0,0,1-.3-.8V45.6a1,1,0,0,1,.3-.8.7.7,0,0,1,.6-.2H82c.1,0,.1.1.1.2s.1.2.1.4v1.2c0,.2,0,.3-.1.4a.3.3,0,0,1-.1.2H76.4v4h4.7c.1,0,.1.1.1.2s.1.2.1.4v1.2c0,.2,0,.3-.1.4a.3.3,0,0,1-.1.2H76.4v4.6H82c.1.1.1.1.1.2s.1.2.1.4S82.3,59.2,82.3,59.4Z"/></g><g class="cls-7"><path class="cls-2" d="M94,55.8a4.6,4.6,0,0,1-1.6,3.8,5.2,5.2,0,0,1-1.8,1,7.8,7.8,0,0,1-2.2.3H87l-1.2-.3-.9-.4a1.1,1.1,0,0,1-.5-.4.8.8,0,0,1-.2-.5c0-.2-.1-.5-.1-.9v-.7c0-.2,0-.3.1-.4a.3.3,0,0,1,.1-.2h.2l.5.2.8.5,1.1.5a3.4,3.4,0,0,0,1.5.2h1l.8-.4.5-.6a2.4,2.4,0,0,0,.2-.9,1.2,1.2,0,0,0-.3-.9,2.3,2.3,0,0,0-.7-.7l-1-.6-1.2-.6-1.2-.7-1-.9a4,4,0,0,1-.7-1.3,4.7,4.7,0,0,1-.3-1.7,4,4,0,0,1,.4-2A4.2,4.2,0,0,1,86,45.4a5.1,5.1,0,0,1,1.6-.9,6.4,6.4,0,0,1,2-.3h1.1l1,.2.8.3.5.3c.1.1.1.2.2.2s.1.1.1.2V47c0,.2,0,.3-.1.4a.3.3,0,0,1-.1.2h-.2l-.4-.2-.7-.4-.9-.4-1.2-.2h-.9a.9.9,0,0,0-.6.4c-.1.2-.3.3-.4.6a1.5,1.5,0,0,0-.1.7,1.2,1.2,0,0,0,.3.9,2.3,2.3,0,0,0,.7.7l1,.6,1.2.6,1.2.7,1,.9a7.5,7.5,0,0,1,.7,1.2A13.7,13.7,0,0,1,94,55.8Z"/></g><g class="cls-7"><path class="cls-2" d="M106.1,45.9v.6c0,.2,0,.3-.1.4a.3.3,0,0,1-.1.2h-4v13c0,.1,0,.2-.1.2l-.2.2H99.2a.2.2,0,0,1-.2-.2V47.2h-4c-.1-.1-.1-.1-.1-.2s-.1-.2-.1-.4V45.3c0-.2,0-.3.1-.4a.3.3,0,0,1,.1-.2h11c.1,0,.1.1.1.2s.1.2.1.4Z"/><path class="cls-2" d="M114,54.6v5.7c0,.1,0,.2-.1.2l-.2.2h-2.4a.2.2,0,0,1-.2-.2c0-.1-.1-.1-.1-.2V54.6l-4.1-8.8-.3-.7c0-.2,0-.3.1-.4l.5-.2h2.4l.3.2.2.3,1.7,4,.5,1.2c.2.4.3.9.5,1.3h0a6.9,6.9,0,0,1,.5-1.3l.5-1.2,1.7-4c0-.1.1-.2.1-.3l.3-.2h2.3l.5.2c.1.1.1.2.1.4a1.3,1.3,0,0,1-.3.7Z"/><path class="cls-2" d="M128.6,59.3v.6c0,.2,0,.3-.1.4a.3.3,0,0,0-.1.2h-7.1a.8.8,0,0,1-.6-.2,1,1,0,0,1-.3-.8V45c0-.1,0-.2.1-.2l.2-.2h2.4a.2.2,0,0,1,.2.2c.1.1.1.1.1.2V58h4.9c.1,0,.1.1.1.2s.1.2.1.4A1.3,1.3,0,0,1,128.6,59.3Z"/><path class="cls-2" d="M139.3,59.4V60c0,.2,0,.3-.1.4a.3.3,0,0,0-.1.2h-7.8a.8.8,0,0,1-.6-.2,1,1,0,0,1-.3-.8V45.6a1,1,0,0,1,.3-.8.7.7,0,0,1,.6-.2H139c.1,0,.1.1.1.2s.1.2.1.4v1.2c0,.2,0,.3-.1.4a.3.3,0,0,1-.1.2h-5.6v4h4.7c.1,0,.1.1.1.2s.1.2.1.4v1.2c0,.2,0,.3-.1.4a.3.3,0,0,1-.1.2h-4.7v4.6H139c.1.1.1.1.1.2s.1.2.1.4S139.3,59.2,139.3,59.4Z"/></g><rect class="cls-1" x="7.3" y="51.9" width="36.7" height="1.5"/><rect class="cls-1" x="140" y="51.9" width="36.7" height="1.5"/></svg>